<?xml version="1.0" encoding="UTF-8" standalone="no"?>
<!-- Created with Inkscape (http://www.inkscape.org/) -->

<svg
   width="297mm"
   height="210mm"
   viewBox="0 0 297 210"
   version="1.1"
   id="svg5"
   inkscape:version="1.3.2 (091e20e, 2023-11-25, custom)"
   xml:space="preserve"
   sodipodi:docname="logo-oct-2024.svg"
   xmlns:inkscape="http://www.inkscape.org/namespaces/inkscape"
   xmlns:sodipodi="http://sodipodi.sourceforge.net/DTD/sodipodi-0.dtd"
   xmlns="http://www.w3.org/2000/svg"
   xmlns:svg="http://www.w3.org/2000/svg"><sodipodi:namedview
     id="namedview7"
     pagecolor="#ffffff"
     bordercolor="#000000"
     borderopacity="0.25"
     inkscape:showpageshadow="2"
     inkscape:pageopacity="0.0"
     inkscape:pagecheckerboard="0"
     inkscape:deskcolor="#d1d1d1"
     inkscape:document-units="mm"
     showgrid="false"
     inkscape:zoom="0.71185516"
     inkscape:cx="836.54658"
     inkscape:cy="462.17267"
     inkscape:window-width="3440"
     inkscape:window-height="1351"
     inkscape:window-x="-9"
     inkscape:window-y="51"
     inkscape:window-maximized="1"
     inkscape:current-layer="layer1" /><defs
     id="defs2" /><g
     inkscape:label="Layer 1"
     inkscape:groupmode="layer"
     id="layer1"><path
       id="rect5"
       style="fill:#1a1a1a;stroke:none;stroke-width:11.5333;stroke-linecap:round;stroke-dasharray:none"
       d="m 262.24666,21.719847 c -5.65788,-1.739176 -11.66744,-2.458902 -17.77563,-2.013706 -9.24555,0.673544 -127.35826,26.969014 -134.78544,30.007202 -7.65912,3.133097 -16.838701,10.664728 -21.81872,17.901684 -3.415951,4.964025 -4.706296,7.95211 -6.961111,16.104731 -4.326068,15.641513 -3.519047,19.448532 12.109367,57.031882 10.657034,25.62809 14.134454,32.69786 19.359804,39.36192 7.65686,9.76513 18.69625,18.3544 30.49313,23.72685 5.29071,2.40943 18.56062,5.5308 25.32372,5.95633 7.64085,0.48069 12.20306,0.10618 35.07187,-2.88313 29.85651,-3.90241 47.5915,-7.52367 54.60629,-11.1482 12.95778,-6.69544 20.93199,-16.03502 25.12576,-29.43115 1.5771,-5.03655 4.6482,-23.46771 8.74178,-52.44341 7.25284,-51.337742 7.254,-53.482399 0.0115,-67.424242 C 285.43352,34.306796 274.6925,25.546021 262.24515,21.72 Z m -3.90459,10.313828 c 14.49364,4.462928 26.80506,18.648422 27.56745,33.826679 0.16491,3.282644 -2.53014,25.54016 -6.00509,49.586096 -7.0031,48.46016 -8.09454,52.72729 -15.57842,60.97026 -8.33157,9.17663 -13.45649,10.9837 -45.1775,15.92219 -15.77371,2.45567 -32.4716,4.79324 -37.10546,5.19472 -13.8133,1.19657 -26.21308,-0.77951 -36.90111,-5.88072 -5.09536,-2.43195 -13.87156,-8.95258 -18.67774,-13.87684 -6.22499,-6.3778 -12.55636,-17.55908 -18.83705,-33.26271 -2.79847,-6.99721 -7.41608,-18.11909 -10.259768,-24.71526 -2.843741,-6.5962 -5.671106,-15.26318 -6.284062,-19.26105 -1.019259,-6.648487 -0.864987,-8.058668 1.824061,-16.516371 2.699513,-8.490551 3.369096,-9.693181 8.175739,-14.69916 3.30221,-3.439059 7.50305,-6.476348 11.3778,-8.227558 7.37135,-3.331485 126.90174,-30.206393 135.61247,-30.490603 3.46179,-0.113064 6.92402,0.400507 10.26872,1.430327 z" /><path
       id="path5"
       style="fill:#1a1a1a;stroke:none;stroke-width:11.5333;stroke-linecap:round;stroke-dasharray:none"
       d="M 167.41574,0.76233697 C 161.52964,0.13799801 155.49334,0.58174068 149.58318,2.1870006 140.63724,4.6173025 29.738761,53.027553 23.030221,57.430735 16.112167,61.971469 8.5433889,71.12047 5.040192,79.176633 2.6372207,84.702592 1.9424819,87.882349 1.2893282,96.315775 0.03618226,112.49605 1.5567463,116.07829 24.087932,149.97675 c 15.364003,23.11529 20.129953,29.38902 26.533845,34.93009 9.383924,8.11957 21.862867,14.43778 34.469674,17.45362 5.653926,1.35254 19.275849,1.87711 25.995419,1.00067 7.59165,-0.9903 11.99786,-2.23104 33.87227,-9.54086 28.55819,-9.54327 45.27257,-16.4912 51.46415,-21.39104 11.43722,-9.05119 17.47696,-19.74407 19.02988,-33.69514 0.58424,-5.24523 0.0719,-23.92346 -1.4547,-53.147054 C 211.29383,33.810023 210.8846,31.704813 201.10961,19.406111 192.58415,8.6795328 180.36522,2.1358444 167.41574,0.76233697 Z m -1.8589,10.87040403 c 15.07981,1.607097 29.87811,13.174691 33.53075,27.926633 0.78999,3.190471 2.40371,25.552347 3.59409,49.818921 2.39912,48.904725 2.14435,53.301885 -3.62396,62.824555 -6.42167,10.60128 -11.10611,13.35559 -41.29602,24.27263 -15.01246,5.42863 -30.95458,10.91808 -35.42606,12.19879 -13.32908,3.81764 -25.877889,4.25074 -37.344416,1.28896 -5.466577,-1.41205 -15.328265,-6.13287 -20.987895,-10.04647 -7.330301,-5.0688 -15.684166,-14.83202 -24.853632,-29.04367 -4.085674,-6.33244 -10.746097,-16.36527 -14.799413,-22.29538 -4.053353,-5.93015 -8.486914,-13.89602 -9.853519,-17.7027 -2.272614,-6.33061 -2.391031,-7.74423 -1.370025,-16.560257 1.02496,-8.850194 1.452059,-10.158732 5.211993,-15.991935 2.583122,-4.007401 6.12512,-7.792366 9.593158,-10.252647 6.597644,-4.680409 118.776789,-53.930661 127.272229,-55.876414 3.37629,-0.773331 6.87274,-0.93185 10.35272,-0.561016 z" /></g></svg>
